<?xml version="1.0" encoding="UTF-8" standalone="no"?><!-- Generator: Gravit.io --><svg xmlns="http://www.w3.org/2000/svg" xmlns:xlink="http://www.w3.org/1999/xlink" style="isolation:isolate" viewBox="0 0 768 768" width="768pt" height="768pt"><defs><clipPath id="_clipPath_hheiLEHQzdWX5CpUFrP2PkdgvVq5wzU9"><rect width="768" height="768"/></clipPath></defs><g clip-path="url(#_clipPath_hheiLEHQzdWX5CpUFrP2PkdgvVq5wzU9)"><path d=" M 96 64 L 672 64 C 689.661 64 704 78.339 704 96 L 704 672 C 704 689.661 689.661 704 672 704 L 96 704 C 78.339 704 64 689.661 64 672 L 64 96 C 64 78.339 78.339 64 96 64 Z  M 128 128 L 640 128 L 640 640 L 128 640 L 128 128 Z " fill-rule="evenodd" fill="rgb(0,0,0)"/><circle vector-effect="non-scaling-stroke" cx="384" cy="384" r="32" fill="rgb(0,0,0)"/><circle vector-effect="non-scaling-stroke" cx="384" cy="288" r="32" fill="rgb(0,0,0)"/><circle vector-effect="non-scaling-stroke" cx="384" cy="192" r="32" fill="rgb(0,0,0)"/><circle vector-effect="non-scaling-stroke" cx="384" cy="576" r="32" fill="rgb(0,0,0)"/><circle vector-effect="non-scaling-stroke" cx="384" cy="480" r="32" fill="rgb(0,0,0)"/><path d=" M 480 352 C 497.661 352 512 366.339 512 384 C 512 401.661 497.661 416 480 416 C 462.339 416 448 401.661 448 384 C 448 366.339 462.339 352 480 352 Z " fill="rgb(0,0,0)"/><path d=" M 576 352 C 593.661 352 608 366.339 608 384 C 608 401.661 593.661 416 576 416 C 558.339 416 544 401.661 544 384 C 544 366.339 558.339 352 576 352 Z " fill="rgb(0,0,0)"/><path d=" M 192 352 C 209.661 352 224 366.339 224 384 C 224 401.661 209.661 416 192 416 C 174.339 416 160 401.661 160 384 C 160 366.339 174.339 352 192 352 Z " fill="rgb(0,0,0)"/><path d=" M 288 352 C 305.661 352 320 366.339 320 384 C 320 401.661 305.661 416 288 416 C 270.339 416 256 401.661 256 384 C 256 366.339 270.339 352 288 352 Z " fill="rgb(0,0,0)"/></g></svg>