<?xml version="1.0" encoding="UTF-8" standalone="no"?><!-- Generator: Gravit.io --><svg xmlns="http://www.w3.org/2000/svg" xmlns:xlink="http://www.w3.org/1999/xlink" style="isolation:isolate" viewBox="0 0 768 768" width="768pt" height="768pt"><defs><clipPath id="_clipPath_ADGKKVxfORl4myvKeigdecZ7JhLCQ7St"><rect width="768" height="768"/></clipPath></defs><g clip-path="url(#_clipPath_ADGKKVxfORl4myvKeigdecZ7JhLCQ7St)"><path d=" M 602.17 265.31 L 711.151 319.801 C 746.694 337.572 746.694 366.428 711.151 384.199 L 602.17 438.69 L 534.769 640.885 C 522.203 678.584 501.797 678.584 489.231 640.885 L 421.83 438.69 L 312.849 384.199 C 277.306 366.428 277.306 337.572 312.849 319.801 L 421.83 265.31 L 489.231 63.115 C 501.797 25.416 522.203 25.416 534.769 63.115 L 602.17 265.31 Z  M 549.83 310.69 L 632.45 352 L 549.83 393.31 L 512 506.81 L 474.17 393.31 L 391.55 352 L 474.17 310.69 L 512 197.19 L 549.83 310.69 Z " fill-rule="evenodd" fill="rgb(0,0,0)"/><path d=" M 224 224 L 288 224 C 296.48 224 304.63 220.63 310.63 214.63 C 316.63 208.63 320 200.48 320 192 C 320 183.52 316.63 175.37 310.63 169.37 C 304.63 163.37 296.48 160 288 160 L 224 160 L 224 96 C 224 87.52 220.63 79.37 214.63 73.37 C 208.63 67.37 200.48 64 192 64 C 183.52 64 175.37 67.37 169.37 73.37 C 163.37 79.37 160 87.52 160 96 L 160 160 L 96 160 C 87.52 160 79.37 163.37 73.37 169.37 C 67.37 175.37 64 183.52 64 192 C 64 200.48 67.37 208.63 73.37 214.63 C 79.37 220.63 87.52 224 96 224 L 160 224 L 160 288 C 160 296.48 163.37 304.63 169.37 310.63 C 175.37 316.63 183.52 320 192 320 C 200.48 320 208.63 316.63 214.63 310.63 C 220.63 304.63 224 296.48 224 288 L 224 224 Z " fill="rgb(0,0,0)"/><path d=" M 288 608 L 352 608 C 360.48 608 368.63 604.63 374.63 598.63 C 380.63 592.63 384 584.48 384 576 C 384 567.52 380.63 559.37 374.63 553.37 C 368.63 547.37 360.48 544 352 544 L 288 544 L 288 448 C 288 439.52 284.63 431.37 278.63 425.37 C 272.63 419.37 264.48 416 256 416 C 247.52 416 239.37 419.37 233.37 425.37 C 227.37 431.37 224 439.52 224 448 L 224 544 L 160 544 C 151.52 544 143.37 547.37 137.37 553.37 C 131.37 559.37 128 567.52 128 576 C 128 584.48 131.37 592.63 137.37 598.63 C 143.37 604.63 151.52 608 160 608 L 224 608 L 224 704 C 224 712.48 227.37 720.63 233.37 726.63 C 239.37 732.63 247.52 736 256 736 C 264.48 736 272.63 732.63 278.63 726.63 C 284.63 720.63 288 712.48 288 704 L 288 608 Z " fill="rgb(0,0,0)"/></g></svg>