<?xml version="1.0" encoding="UTF-8" standalone="no"?><!-- Generator: Gravit.io --><svg xmlns="http://www.w3.org/2000/svg" xmlns:xlink="http://www.w3.org/1999/xlink" style="isolation:isolate" viewBox="0 0 768 768" width="768pt" height="768pt"><defs><clipPath id="_clipPath_MRxy4gI49y0U58b5yjqUv4Q0samWpXXC"><rect width="768" height="768"/></clipPath></defs><g clip-path="url(#_clipPath_MRxy4gI49y0U58b5yjqUv4Q0samWpXXC)"><path d=" M 224 224 C 236.86 223.99 249.59 226.58 261.42 231.61 C 272.85 236.49 283.21 243.52 291.95 252.32 C 300.69 261.11 307.66 271.51 312.47 282.94 C 317.45 294.81 320.01 307.55 320 320.41 L 320 447.59 C 320.01 460.45 317.45 473.19 312.47 485.06 C 307.66 496.49 300.69 506.89 291.95 515.68 C 283.21 524.48 272.85 531.51 261.44 536.38 C 249.6 541.41 236.87 544.01 224 544 C 211.13 544.01 198.4 541.41 186.56 536.38 C 175.15 531.51 164.79 524.48 156.05 515.68 C 147.31 506.89 140.34 496.49 135.53 485.06 C 130.55 473.19 127.99 460.45 128 447.59 L 128 320.41 C 127.99 307.55 130.55 294.81 135.53 282.94 C 140.34 271.51 147.31 261.11 156.05 252.32 C 164.79 243.52 175.15 236.49 186.56 231.62 C 198.4 226.59 211.13 223.99 224 224 Z  M 224 288 C 228.25 287.99 232.47 288.85 236.38 290.51 C 240.17 292.13 243.63 294.48 246.54 297.42 C 249.49 300.39 251.84 303.89 253.47 307.74 C 255.14 311.74 256 316.03 256 320.37 C 256 320.38 256 320.39 256 320.4 L 256 447.6 C 256 447.61 256 447.62 256 447.63 C 256 451.97 255.14 456.26 253.47 460.26 C 251.84 464.11 249.49 467.61 246.54 470.58 C 243.63 473.52 240.17 475.87 236.36 477.49 C 232.45 479.15 228.25 480.01 224 480 C 219.75 480.01 215.55 479.15 211.64 477.49 C 207.83 475.87 204.37 473.52 201.46 470.58 C 198.51 467.61 196.16 464.11 194.53 460.26 C 192.86 456.26 192 451.97 192 447.63 C 192 447.62 192 447.61 192 447.6 L 192 320.4 C 192 320.39 192 320.38 192 320.37 C 192 316.03 192.86 311.74 194.53 307.74 C 196.16 303.89 198.51 300.39 201.46 297.42 C 204.37 294.48 207.83 292.13 211.64 290.51 C 215.55 288.85 219.75 287.99 224 288 Z " fill-rule="evenodd" fill="rgb(0,0,0)"/><path d=" M 544 224 C 556.86 223.99 569.59 226.58 581.42 231.61 C 592.85 236.49 603.21 243.52 611.95 252.32 C 620.69 261.11 627.66 271.51 632.47 282.94 C 637.45 294.81 640.01 307.55 640 320.41 L 640 447.59 C 640.01 460.45 637.45 473.19 632.47 485.06 C 627.66 496.49 620.69 506.89 611.95 515.68 C 603.21 524.48 592.85 531.51 581.44 536.38 C 569.6 541.41 556.87 544.01 544 544 C 531.13 544.01 518.4 541.41 506.56 536.38 C 495.15 531.51 484.79 524.48 476.05 515.68 C 467.31 506.89 460.34 496.49 455.53 485.06 C 450.55 473.19 447.99 460.45 448 447.59 L 448 320.41 C 447.99 307.55 450.55 294.81 455.53 282.94 C 460.34 271.51 467.31 261.11 476.05 252.32 C 484.79 243.52 495.15 236.49 506.56 231.62 C 518.4 226.59 531.13 223.99 544 224 Z  M 544 288 C 548.25 287.99 552.47 288.85 556.38 290.51 C 560.17 292.13 563.63 294.48 566.54 297.42 C 569.49 300.39 571.84 303.89 573.47 307.74 C 575.14 311.74 576 316.03 576 320.37 C 576 320.38 576 320.39 576 320.4 L 576 447.6 C 576 447.61 576 447.62 576 447.63 C 576 451.97 575.14 456.26 573.47 460.26 C 571.84 464.11 569.49 467.61 566.54 470.58 C 563.63 473.52 560.17 475.87 556.36 477.49 C 552.45 479.15 548.25 480.01 544 480 C 539.75 480.01 535.55 479.15 531.64 477.49 C 527.83 475.87 524.37 473.52 521.46 470.58 C 518.51 467.61 516.16 464.11 514.53 460.26 C 512.86 456.26 512 451.97 512 447.63 C 512 447.62 512 447.61 512 447.6 L 512 320.4 C 512 320.39 512 320.38 512 320.37 C 512 316.03 512.86 311.74 514.53 307.74 C 516.16 303.89 518.51 300.39 521.46 297.42 C 524.37 294.48 527.83 292.13 531.64 290.51 C 535.55 288.85 539.75 287.99 544 288 Z " fill-rule="evenodd" fill="rgb(0,0,0)"/><path d=" M 384 512 C 384 494.339 369.661 480 352 480 C 334.339 480 320 494.339 320 512 C 320 527.702 331.334 540.778 346.267 543.468 C 346.059 544.17 345.849 544.872 345.64 545.57 C 344.54 549.15 343.38 552.7 342.15 556.24 C 340.51 560.96 338.81 565.66 337.04 570.33 C 335.54 574.3 335.67 578.7 337.41 582.57 C 339.15 586.44 342.36 589.46 346.33 590.96 C 350.3 592.46 354.7 592.33 358.57 590.59 C 362.44 588.85 365.46 585.64 366.96 581.67 C 368.84 576.72 370.65 571.73 372.38 566.73 C 373.74 562.82 375.02 558.9 376.23 554.94 C 376.65 553.58 377.06 552.22 377.45 550.85 C 377.81 549.61 378.16 548.37 378.5 547.12 C 378.98 545.36 379.43 543.6 379.86 541.83 C 380.23 540.29 380.58 538.75 380.9 537.2 C 381.35 535.05 384 523.969 384 512 Z " fill="rgb(0,0,0)"/></g></svg>